<?xml version="1.0" encoding="iso-8859-1"?>
<!-- Generator: Adobe Illustrator 17.1.0, SVG Export Plug-In . SVG Version: 6.00 Build 0)  -->
<!DOCTYPE svg PUBLIC "-//W3C//DTD SVG 1.1//EN" "http://www.w3.org/Graphics/SVG/1.1/DTD/svg11.dtd">
<svg version="1.1" id="Layer_1" xmlns="http://www.w3.org/2000/svg" xmlns:xlink="http://www.w3.org/1999/xlink" x="0px" y="0px"
	 viewBox="0 0 152 120" style="enable-background:new 0 0 152 120;" xml:space="preserve">
<g>
	<g>
		<path style="fill:#309A47;" d="M41.946,1.391c0.428,0.195,1.5,0.452,1.5,1.205c0,0.754-1.575,1.312-2.504,1.809
			c0.43,0.195,1.255,0.45,1.934,0.499c0.071,0.707-1.504,1.719-2.433,2.214l1.5,0.887c-0.527,0.687-1.575,1.33-3.006,2.128
			l0.812,0.458c0.83-0.294,2.367-0.902,4.044-1.199c0,0,0.656-0.011,0.656,0.741c0,0.753-4.08,2.518-6.512,3.92
			c0.428,0.195-0.252,0.453,1,0.453c1.255,0,4.61-1.177,6.742-2.11c0,0,0.524,0.299,1.244,0.38
			c-2.201,2.151-6.954,3.957-10.991,5.804l0.808,0.448c1.837-0.59,4.325-1.489,6.921-2.412l2.287,0.422
			c-4.09,2.251-8.61,4.366-13.022,6.367l0.814,0.448c3.594-1.01,8.215-3.433,13.69-3.237c-3.906,3.322-12.226,5.348-16.054,8.717
			c4.493-0.809,9.975-2.499,16.282-3.976c0.548-0.002,1.226,0.345,1.801,0.755c-5.093,2.821-11.102,5.232-16.534,8.137l0.809,0.454
			c5.843-1.796,16.289-5.129,17.541-5.103h2.139v1.116c-8.229,2.423-14.008,4.93-21.992,8.663l0.795,0.447
			c5.206-2.087,16.703-4.738,23.212-6.262c-6.742,3.882-16.464,6.381-24.948,10.124c4.088-2.542,9.675-4.472,14.983-6.977
			c-0.263,0.1,0.235-0.204-1.017-0.204c-2.315,0-12.355,3.54-14.687,4.805h-1.741c0,0-0.03-0.328-0.605-0.739
			c4.594-2.519,10.637-5.246,16.035-7.248c-0.432-0.177-0.755-0.433-0.947-0.437l-9.273,2.688h-2.244
			c-0.066-0.424-0.565-0.123-0.565-0.877c0-1.094,11.483-5.538,14.529-7.088c-0.428-0.191,0-0.449-1.252-0.449
			c-1.255,0-8.43,2.404-12.578,3.314c-0.627-0.341-1.7-0.448-1.7-1.2c0-2.114,11-5.812,14.027-7.096
			c-0.429-0.186,0.251-0.442-1.004-0.442c-1.251,0-7.666,2.4-11.316,3.314l-1.207-0.763c2.577-1.604,6.103-3.418,9.016-4.819
			l-0.765-0.445c-0.309,0.258-1.31,0.258-2.394,0.884h-1.746c0,0-0.605,0.021-0.605-0.731c0-0.755,4.601-2.527,7.516-3.927
			c-0.43-0.188,0.249-0.444-1.003-0.444c-1.253,0-2.143,0.584-3.297,0.9c-0.638-0.342-1.212-0.3-1.212-1.053
			c0-0.754,4.081-2.517,6.012-3.617c-0.428-0.195,0.25-0.451-1.001-0.451c-1.252,0-2.758,0.903-3.966,0.86v-1.055
			c0.485-0.628,1.96-0.559,1.96-1.314c0-0.755-1-0.3-1-1.055c0-0.752,2.005-0.752,2.005-1.507c0-0.754-1.505-0.754-1.505-1.507
			c0-0.752,3.005-1.204,3.005-1.96c0-0.752-1-0.452-1-1.205c0-0.754,1-0.302,1-1.053C40.943-1.21,42.374,1.196,41.946,1.391"/>
		<path style="fill:#309A47;" d="M50.775,38.673h2.684c-9.79,4.886-22.491,7.554-33.558,13.663l0.818,0.455
			c10.111-2.593,21.166-6.973,33.223-8.665c-8.329,4.291-23.358,8.361-31.535,12.437l0.792,0.446
			c1.324-0.58,4.219-1.811,5.469-1.811c1.252,0,0.177,0.346,0.52,0.603c7.598-3.4,15.907-4.884,25.509-7.535l2.274,0.433
			c-7.812,3.233-18.509,5.377-27.553,9.372l0.771,0.442c0.806-0.56,2.347-0.577,3.777-0.975c-5.671,2.158-12.708,4.278-19.531,6.036
			c5.479-3.474,14.605-6.057,22.529-8.904v-0.761c-0.894-0.234-1.032,0.083-2.285,0.083c-1.252,0-9.906,2.998-15.109,4.512
			c0,0-0.671,0.009-0.671-0.746c0-1.92,19.095-8.229,24.049-9.962c-0.43-0.177-0.002-0.436-1.253-0.436
			c-1.252,0-1.252,0.299-2.506,0.299c-1.252,0-13.915,4.507-20.982,6.588h-2.291c3.088-2.976,14.506-6.736,14.506-7.34
			c0-0.752,7.166-2.85,10.598-3.729c0,0-0.004-0.295,0.424-0.491c-0.428-0.193,0-0.451-1.255-0.451
			c-1.252,0-4.928,1.498-8.246,2.014C38.582,42.249,49.523,38.618,50.775,38.673"/>
		<path style="fill:#309A47;" d="M29.185,43.441c0.665,0.348-2.269,0.905-2.269,1.658c0,0.753,0.427,0.496,0.997,0.929
			c-2.136,0.713-4.141,1.617-6.199,2.197h-1.776C21.42,45.65,25.884,44.981,29.185,43.441"/>
		<path style="fill:#309A47;" d="M60.471,51.383c-5.138,1.686-11.158,3.499-16.979,4.953l0.959-0.689l-0.765-0.452
			c-2.871,1.986-10.275,4.547-15.742,5.946c1.239-0.54,11.498-3.193,11.498-4.739c0-1.281,11.082-3.316,11.271-3.316
			c0.438,0,0.25-0.188,0.25-0.45C50.963,51.882,56.688,51.58,60.471,51.383"/>
		<path style="fill:#309A47;" d="M64.171,53.124h2.28c-0.596,1.437-6.484,2.032-8.474,3.128c0.428,0.197,1.428,0.499,1.753,0.752
			c0.325-0.253,0.251-0.448,0.325-0.829h2.419c-5.332,2.978-15.138,5.029-22.533,7.632l0.994,0.618c0,0-0.564,0.072-0.994,0.268
			l0.81,0.456c0.833-0.289,1.306-0.884,2.932-1.509c0,0,0.695,0.042,1.25,0.507c-0.733,0.092-1.057,0.05-1.503,0.301
			c0.017,8.08,0.52,8.988,0.52,9.74c0,3.391,5.136,4.22,7.764,4.22c1.252,0,2.585-0.596,3.913-0.289
			c1.124-1.436,1.926,0.149,4.783,0.333c0.322-0.044,1.325,0.258,1.679,0.284c3.367-0.069,4.862-0.562,5.624,0.276
			c3.079,0.344,3.478,0.74,5.175,0.632h2.201c1.637,0.304,3.928-1.084,3.855,0.014c0.325-0.045,0.825,0.259,2.234,0.268
			c0.919-0.568,4.917-0.914,5.855-0.914c1.253,0,6.765-0.302,8.016-0.302c1.251,0,2.253-0.602,3.504-0.602
			c6.389,0,10.947,1.258,16.032,2.873c-1.671,0.433-4.257,0.744-5.507,0.744c-1.253,0-9.519-1.508-10.773-1.508
			c-1.253,0-3.007,0.905-4.258,0.905c-1.253,0-1.002-0.605-2.255-0.605c-6.139,0-13.462,1.208-20.79,1.208
			c-1.253,0-6.513-0.602-7.766-0.602c-1.255,0-0.501-0.605-1.753-0.605c-1.255,0-1.504,0.605-2.757,0.605
			c-1.25,0-2.254-0.905-3.508-0.905c-1.251,0-3.254,0.603-4.505,0.603c-1.255,0-1.755-0.603-3.009-0.603
			c-1.251,0-1.503,0.603-2.755,0.603c-1.251,0-3.755-0.603-5.01-0.603c-1.252,0-22.544,1.811-23.794,1.811
			c-1.254,0-1.254-0.906-2.507-0.906c-1.252,0-4.821,0.906-6.073,0.862H3.897c1.702-1.847,9.492-2.973,10.744-2.973
			s2.755,0.601,4.009,0.601c12.086,0,18.785-1.693,18.785-8.136c0-0.755,1.002-2.715,1.002-3.47c0-0.752-0.927-1.4-1.848-1.97
			c-0.406,0.01-1.297,0.599-2.383,0.916l-2.276-0.423c6.148-3.53,11.004-4.149,16.028-6.074l-1.297-0.739
			c-5.843,2.091-12.865,3.899-20.436,6.273h-1.806c3.219-1.682,5.736-2.76,9.517-3.443c-0.434-0.159-0.257-0.42-1.509-0.42
			c-1.252,0-2.141,0.591-3.46,0.845c0.528-0.498,0.455-0.692,0.551-1.112c2.97,0.387,2.909-0.937,4.161-0.937
			c1.252,0,1.68,0.647,2.004,0.905c0.824-0.558,0.501-1.205,0.898-1.194c1.353-0.975,7.931-2.725,10.625-2.725
			c1.253,0,0.249-0.149,0.405-0.591l1.105,0.591c0.318-0.256,0.318-0.346-0.21-0.842c0,0,0.879-0.018,1.182,0.24
			C52.073,55.151,59.977,54.615,64.171,53.124"/>
		<path style="fill:#309A47;" d="M42.441,1.886c0.428,0.194,1.503,0.452,1.503,1.204c0,0.755-1.577,1.315-2.504,1.81
			c0.428,0.195,1.252,0.452,1.93,0.498c0.072,0.706-1.502,1.718-2.434,2.216l1.503,0.885c-0.526,0.687-1.573,1.33-3.003,2.128
			l0.808,0.455c0.833-0.289,2.37-0.899,4.048-1.196c0,0,0.653-0.011,0.653,0.742c0,0.754-4.08,2.517-6.512,3.919
			c0.428,0.195-0.251,0.451,1.003,0.451c1.252,0,4.61-1.174,6.742-2.108c0,0,0.524,0.299,1.244,0.379
			c-2.206,2.151-6.954,3.958-10.992,5.809l0.808,0.445c1.834-0.589,4.321-1.489,6.92-2.412l2.284,0.421
			c-4.086,2.254-8.606,4.366-13.021,6.367l0.816,0.449c3.592-1.009,8.213-3.434,13.69-3.235c-3.908,3.32-12.228,5.348-16.054,8.719
			c4.491-0.81,9.976-2.501,16.283-3.979c0.546-0.002,1.224,0.341,1.798,0.754c-5.091,2.822-11.102,5.232-16.534,8.139l0.809,0.452
			c5.843-1.795,16.289-5.129,17.54-5.102h2.139v1.115c-8.228,2.425-14.007,4.93-21.991,8.667l0.796,0.445
			c5.205-2.091,16.706-4.739,23.214-6.264c-6.742,3.885-16.466,6.381-24.95,10.128c4.087-2.544,9.675-4.473,14.983-6.982
			c-0.265,0.1,0.237-0.201-1.018-0.201c-2.317,0-12.354,3.542-14.688,4.805h-1.74c0,0-0.032-0.327-0.605-0.739
			c4.594-2.519,10.637-5.247,16.034-7.248c-0.429-0.177-0.754-0.436-0.948-0.44l-9.271,2.69h-2.244
			c-0.064-0.424-0.565-0.122-0.565-0.877c0-1.094,11.483-5.54,14.528-7.088c-0.427-0.188,0-0.448-1.252-0.448
			c-1.252,0-8.431,2.403-12.577,3.316c-0.624-0.344-1.701-0.451-1.701-1.203c0-2.112,10.997-5.811,14.027-7.095
			c-0.427-0.183,0.25-0.441-1.002-0.441c-1.252,0-7.668,2.398-11.321,3.311l-1.203-0.76c2.576-1.605,6.102-3.421,9.017-4.818
			l-0.767-0.446c-0.307,0.256-1.308,0.256-2.393,0.884h-1.746c0,0-0.603,0.019-0.603-0.733c0-0.757,4.598-2.528,7.514-3.926
			c-0.428-0.19,0.25-0.446-1.003-0.446c-1.253,0-2.142,0.585-3.298,0.9c-0.637-0.341-1.212-0.297-1.212-1.051
			c0-0.755,4.08-2.521,6.014-3.619c-0.43-0.195,0.248-0.452-1.007-0.452c-1.25,0-2.754,0.906-3.964,0.861v-1.053
			c0.487-0.626,1.965-0.563,1.965-1.315c0-0.752-1.003-0.3-1.003-1.054c0-0.753,2.004-0.753,2.004-1.507
			c0-0.753-1.505-0.753-1.505-1.507c0-0.753,3.008-1.206,3.008-1.96c0-0.753-1.003-0.454-1.003-1.205
			c0-0.753,1.003-0.299,1.003-1.057C41.439-0.715,42.869,1.69,42.441,1.886"/>
		<path style="fill:#309A47;" d="M51.271,39.166h2.682c-9.792,4.887-22.491,7.554-33.557,13.666l0.817,0.454
			c10.108-2.594,21.166-6.972,33.223-8.663c-8.331,4.291-23.359,8.36-31.536,12.432l0.795,0.448
			c1.321-0.581,4.215-1.811,5.469-1.811c1.253,0,0.177,0.346,0.52,0.605c7.597-3.402,15.908-4.887,25.508-7.538l2.275,0.436
			c-7.812,3.229-18.508,5.373-27.552,9.372l0.767,0.441c0.81-0.56,2.35-0.577,3.781-0.975c-5.675,2.162-12.71,4.278-19.531,6.037
			c5.475-3.473,14.605-6.058,22.529-8.904v-0.76c-0.895-0.236-1.031,0.079-2.285,0.079c-1.252,0-9.907,3.001-15.109,4.516
			c0,0-0.672,0.007-0.672-0.745c0-1.923,19.096-8.23,24.05-9.967c-0.43-0.177-0.004-0.435-1.256-0.435
			c-1.252,0-1.252,0.304-2.504,0.304c-1.253,0-13.915,4.503-20.983,6.583h-2.29c3.087-2.977,14.504-6.736,14.504-7.337
			c0-0.755,7.168-2.853,10.602-3.728c0,0-0.006-0.299,0.423-0.494c-0.428-0.195,0-0.452-1.254-0.452c-1.252,0-4.928,1.5-8.246,2.016
			C39.079,42.745,50.018,39.115,51.271,39.166"/>
		<path style="fill:#309A47;" d="M29.679,43.935c0.664,0.346-2.268,0.906-2.268,1.658c0,0.755,0.427,0.497,0.998,0.931
			c-2.139,0.71-4.144,1.615-6.202,2.195h-1.776C21.916,46.145,26.378,45.478,29.679,43.935"/>
		<path style="fill:#309A47;" d="M60.964,51.879c-5.136,1.687-11.155,3.497-16.977,4.954l0.96-0.693l-0.767-0.447
			c-2.871,1.984-10.275,4.544-15.742,5.941c1.241-0.538,11.498-3.192,11.498-4.738c0-1.28,11.085-3.316,11.271-3.316
			c0.439,0,0.25-0.187,0.25-0.452C51.456,52.375,57.183,52.076,60.964,51.879"/>
		<path style="fill:#309A47;" d="M64.667,53.619h2.28c-0.594,1.436-6.486,2.031-8.478,3.129c0.43,0.192,1.432,0.496,1.756,0.753
			c0.323-0.257,0.251-0.451,0.323-0.829h2.417c-5.332,2.977-15.137,5.025-22.532,7.63l0.998,0.617c0,0-0.568,0.075-0.996,0.269
			l0.808,0.455c0.833-0.286,1.307-0.884,2.934-1.512c0,0,0.695,0.045,1.248,0.511c-0.732,0.094-1.055,0.048-1.501,0.302
			c0.018,8.082,0.519,8.984,0.519,9.74c0,3.392,5.134,4.218,7.766,4.218c1.25,0,2.584-0.594,3.911-0.288
			c1.124-1.437,1.928,0.149,4.781,0.332c0.325-0.044,1.329,0.258,1.682,0.287c3.364-0.077,4.862-0.564,5.622,0.273
			c3.082,0.346,3.478,0.739,5.177,0.635h2.205c1.634,0.303,3.926-1.087,3.851,0.014c0.322-0.044,0.826,0.256,2.23,0.269
			c0.923-0.571,4.921-0.917,5.857-0.917c1.255,0,6.765-0.302,8.018-0.302c1.251,0,2.253-0.601,3.509-0.601
			c6.386,0,10.942,1.258,16.027,2.873c-1.67,0.434-4.254,0.743-5.507,0.743c-1.253,0-9.519-1.508-10.772-1.508
			c-1.253,0-3.008,0.907-4.258,0.907c-1.254,0-1.002-0.605-2.253-0.605c-6.138,0-13.467,1.206-20.795,1.206
			c-1.252,0-6.51-0.601-7.764-0.601c-1.253,0-0.5-0.605-1.752-0.605c-1.254,0-1.502,0.605-2.754,0.605
			c-1.255,0-2.255-0.907-3.507-0.907c-1.252,0-3.259,0.605-4.511,0.605c-1.251,0-1.751-0.605-3.005-0.605
			c-1.253,0-1.5,0.605-2.755,0.605c-1.252,0-3.756-0.605-5.009-0.605c-1.253,0-22.546,1.811-23.797,1.811
			c-1.252,0-1.252-0.904-2.506-0.904c-1.252,0-4.819,0.904-6.072,0.861H4.393c1.7-1.846,9.492-2.973,10.743-2.973
			c1.254,0,2.754,0.604,4.007,0.604c12.087,0,18.789-1.697,18.789-8.14c0-0.752,1.003-2.713,1.003-3.467
			c0-0.754-0.932-1.4-1.852-1.968c-0.403,0.009-1.295,0.6-2.381,0.914l-2.278-0.424c6.15-3.528,11.006-4.149,16.029-6.074
			l-1.296-0.739c-5.844,2.094-12.865,3.902-20.437,6.275h-1.805c3.219-1.679,5.736-2.76,9.516-3.443
			c-0.433-0.162-0.257-0.416-1.509-0.416c-1.252,0-2.143,0.587-3.461,0.841c0.527-0.496,0.454-0.69,0.551-1.112
			c2.971,0.388,2.91-0.936,4.162-0.936c1.252,0,1.68,0.647,2.004,0.905c0.825-0.558,0.502-1.205,0.897-1.192
			c1.354-0.977,7.935-2.727,10.624-2.727c1.254,0,0.253-0.15,0.408-0.591l1.105,0.591c0.315-0.256,0.315-0.345-0.211-0.84
			c0,0,0.883-0.019,1.182,0.242C52.569,55.645,60.472,55.111,64.667,53.619"/>
		<path style="fill:#309A47;" d="M69.525,31.141c0.208,0.119,0.735,0.279,0.735,0.745c0,0.464-0.771,0.811-1.224,1.116
			c0.209,0.12,0.612,0.282,0.944,0.307c0.035,0.439-0.735,1.065-1.19,1.368l0.735,0.549c-0.258,0.423-0.773,0.819-1.47,1.312
			l0.395,0.283c0.406-0.18,1.158-0.558,1.977-0.739c0,0,0.321-0.009,0.321,0.457c0,0.466-1.996,1.555-3.182,2.42
			c0.208,0.12-0.124,0.279,0.49,0.279c0.611,0,2.254-0.726,3.297-1.301c0,0,0.253,0.186,0.607,0.234
			c-1.077,1.327-3.4,2.444-5.375,3.588l0.396,0.274c0.895-0.365,2.115-0.92,3.385-1.491l1.119,0.26
			c-2.002,1.389-4.21,2.697-6.37,3.933l0.399,0.278c1.755-0.623,4.016-2.122,6.694-2c-1.91,2.05-5.98,3.303-7.849,5.385
			c2.197-0.503,4.878-1.546,7.962-2.456c0.266-0.004,0.598,0.212,0.88,0.466c-2.491,1.739-5.43,3.228-8.086,5.022l0.394,0.279
			c2.86-1.108,7.966-3.167,8.578-3.15h1.046v0.689c-4.022,1.496-6.849,3.047-10.752,5.35l0.386,0.275
			c2.547-1.291,8.168-2.927,11.353-3.867c-3.299,2.399-8.051,3.939-12.199,6.253c1.998-1.57,4.73-2.764,7.326-4.309
			c-0.13,0.059,0.114-0.126-0.499-0.126c-1.131,0-6.038,2.185-7.181,2.965h-0.851c0,0-0.013-0.201-0.295-0.457
			c2.246-1.553,5.2-3.239,7.839-4.472c-0.209-0.112-0.368-0.269-0.462-0.274l-4.534,1.662h-1.097
			c-0.032-0.263-0.275-0.076-0.275-0.543c0-0.672,5.614-3.418,7.104-4.376c-0.211-0.118,0-0.276-0.614-0.276
			c-0.613,0-4.121,1.484-6.15,2.043c-0.307-0.21-0.832-0.276-0.832-0.742c0-1.302,5.379-3.587,6.86-4.381
			c-0.209-0.111,0.122-0.271-0.491-0.271c-0.612,0-3.747,1.48-5.535,2.044l-0.588-0.469c1.261-0.989,2.983-2.112,4.409-2.973
			l-0.376-0.276c-0.15,0.157-0.64,0.157-1.169,0.545h-0.854c0,0-0.295,0.013-0.295-0.452c0-0.466,2.248-1.561,3.674-2.425
			c-0.21-0.117,0.121-0.273-0.49-0.273c-0.613,0-1.051,0.361-1.613,0.555c-0.312-0.213-0.593-0.184-0.593-0.65
			c0-0.466,1.995-1.555,2.941-2.234c-0.211-0.121,0.12-0.278-0.491-0.278c-0.612,0-1.349,0.557-1.941,0.529v-0.65
			c0.238-0.389,0.959-0.345,0.959-0.809c0-0.468-0.488-0.189-0.488-0.652c0-0.466,0.979-0.466,0.979-0.931
			c0-0.466-0.734-0.466-0.734-0.933c0-0.463,1.471-0.743,1.471-1.209c0-0.463-0.49-0.278-0.49-0.744c0-0.465,0.49-0.185,0.49-0.651
			C69.036,29.536,69.732,31.021,69.525,31.141"/>
		<path style="fill:#309A47;" d="M73.841,54.161h1.313c-4.788,3.016-10.996,4.666-16.407,8.438l0.398,0.28
			c4.943-1.603,10.35-4.307,16.248-5.35c-4.075,2.649-11.422,5.16-15.421,7.675l0.387,0.278c0.647-0.357,2.062-1.118,2.675-1.118
			c0.611,0,0.087,0.215,0.255,0.372c3.714-2.101,7.778-3.016,12.472-4.652l1.113,0.266c-3.823,2-9.053,3.321-13.474,5.789
			l0.377,0.272c0.394-0.343,1.148-0.354,1.845-0.601c-2.772,1.332-6.212,2.64-9.55,3.727c2.679-2.143,7.143-3.74,11.018-5.498
			v-0.468c-0.437-0.146-0.504,0.048-1.116,0.048c-0.613,0-4.847,1.853-7.389,2.788c0,0-0.329,0.004-0.329-0.461
			c0-1.185,9.337-5.08,11.76-6.155c-0.21-0.107,0-0.265-0.613-0.265c-0.612,0-0.612,0.187-1.225,0.187
			c-0.611,0-6.806,2.78-10.262,4.066h-1.117c1.509-1.839,7.093-4.159,7.093-4.531c0-0.466,3.502-1.761,5.182-2.302
			c0,0-0.002-0.183,0.207-0.304c-0.209-0.123,0-0.279-0.614-0.279c-0.612,0-2.41,0.928-4.031,1.245
			C67.88,56.37,73.23,54.128,73.841,54.161"/>
		<path style="fill:#309A47;" d="M63.286,57.104c0.323,0.214-1.111,0.558-1.111,1.024c0,0.466,0.211,0.308,0.489,0.575
			c-1.044,0.441-2.026,0.998-3.032,1.356h-0.869C59.487,58.468,61.671,58.056,63.286,57.104"/>
		<path style="fill:#309A47;" d="M78.584,62.009c-2.513,1.042-5.456,2.162-8.303,3.058l0.468-0.423l-0.374-0.278
			c-1.404,1.224-5.026,2.804-7.697,3.667c0.607-0.334,5.621-1.97,5.621-2.925c0-0.793,5.419-2.047,5.512-2.047
			c0.215,0,0.123-0.121,0.123-0.281C73.934,62.316,76.734,62.131,78.584,62.009"/>
		<path style="fill:#309A47;" d="M80.393,63.085h1.114c-0.291,0.886-3.17,1.254-4.143,1.93c0.208,0.121,0.697,0.307,0.858,0.467
			c0.157-0.16,0.12-0.28,0.157-0.515h1.182c-2.607,1.84-7.403,3.104-11.017,4.713l0.488,0.381c0,0-0.28,0.046-0.488,0.164
			l0.396,0.281c0.408-0.177,0.639-0.544,1.433-0.929c0,0,0.338,0.025,0.612,0.313c-0.361,0.055-0.517,0.029-0.735,0.186
			c0.01,4.989,0.254,5.546,0.254,6.013c0,2.095,2.51,2.606,3.796,2.606c0.613,0,1.265-0.369,1.915-0.181
			c0.548-0.884,0.941,0.094,2.338,0.21c0.157-0.029,0.647,0.157,0.822,0.172c1.644-0.043,2.379-0.345,2.75,0.171
			c1.504,0.212,1.697,0.457,2.528,0.39h1.078c0.798,0.188,1.92-0.67,1.886,0.008c0.157-0.026,0.402,0.16,1.089,0.166
			c0.45-0.352,2.406-0.566,2.865-0.566c0.613,0,3.307-0.184,3.92-0.184c0.612,0,1.103-0.373,1.715-0.373
			c3.123,0,5.351,0.781,7.838,1.775c-0.818,0.267-2.082,0.458-2.695,0.458c-0.612,0-4.654-0.929-5.266-0.929
			c-0.613,0-1.47,0.559-2.082,0.559c-0.612,0-0.49-0.374-1.102-0.374c-3.001,0-6.584,0.744-10.166,0.744
			c-0.612,0-3.184-0.37-3.798-0.37c-0.611,0-0.243-0.374-0.855-0.374c-0.615,0-0.737,0.374-1.348,0.374
			c-0.613,0-1.104-0.559-1.714-0.559c-0.613,0-1.594,0.37-2.206,0.37c-0.611,0-0.858-0.37-1.47-0.37c-0.613,0-0.737,0.37-1.348,0.37
			c-0.613,0-1.836-0.37-2.45-0.37c-0.611,0-11.027,1.117-11.635,1.117c-0.614,0-0.614-0.557-1.225-0.557
			c-0.613,0-2.358,0.557-2.969,0.532H50.92c0.831-1.139,4.642-1.838,5.253-1.838c0.613,0,1.345,0.374,1.96,0.374
			c5.912,0,9.187-1.048,9.187-5.026c0-0.465,0.488-1.675,0.488-2.141c0-0.463-0.453-0.864-0.902-1.216
			c-0.198,0.006-0.634,0.369-1.165,0.566l-1.113-0.26c3.005-2.183,5.381-2.564,7.839-3.754l-0.636-0.455
			c-2.858,1.291-6.292,2.409-9.991,3.873h-0.885c1.575-1.037,2.804-1.703,4.655-2.126c-0.213-0.098-0.126-0.256-0.737-0.256
			c-0.614,0-1.047,0.361-1.693,0.519c0.257-0.306,0.221-0.426,0.269-0.687c1.453,0.239,1.424-0.576,2.035-0.576
			c0.611,0,0.822,0.4,0.979,0.559c0.406-0.346,0.246-0.746,0.442-0.737c0.661-0.603,3.877-1.683,5.194-1.683
			c0.611,0,0.123-0.093,0.199-0.366l0.54,0.366c0.154-0.157,0.154-0.214-0.103-0.519c0,0,0.432-0.013,0.577,0.146
			C74.478,64.334,78.341,64.006,80.393,63.085"/>
		<path style="fill:#309A47;" d="M69.765,31.448c0.211,0.12,0.737,0.279,0.737,0.743c0,0.468-0.773,0.81-1.224,1.118
			c0.208,0.119,0.613,0.279,0.942,0.306c0.036,0.437-0.734,1.06-1.188,1.368l0.733,0.545c-0.257,0.427-0.77,0.822-1.469,1.316
			l0.394,0.283c0.408-0.178,1.158-0.557,1.98-0.742c0,0,0.322-0.007,0.322,0.459c0,0.467-1.997,1.553-3.184,2.42
			c0.209,0.12-0.123,0.278,0.488,0.278c0.612,0,2.253-0.724,3.296-1.299c0,0,0.256,0.187,0.607,0.232
			c-1.077,1.327-3.4,2.443-5.373,3.585l0.395,0.277c0.898-0.366,2.114-0.918,3.383-1.491l1.12,0.263
			c-2.001,1.389-4.21,2.697-6.369,3.93l0.398,0.278c1.758-0.624,4.016-2.12,6.695-2c-1.911,2.052-5.977,3.304-7.85,5.385
			c2.198-0.503,4.878-1.544,7.965-2.458c0.267,0,0.598,0.214,0.878,0.466c-2.49,1.743-5.428,3.232-8.085,5.026l0.398,0.279
			c2.856-1.111,7.962-3.166,8.576-3.152h1.045v0.692c-4.024,1.496-6.848,3.042-10.755,5.348l0.389,0.275
			c2.547-1.288,8.168-2.924,11.352-3.864c-3.297,2.395-8.05,3.939-12.2,6.253c2.001-1.572,4.73-2.762,7.328-4.313
			c-0.13,0.063,0.113-0.123-0.497-0.123c-1.133,0-6.042,2.183-7.182,2.966h-0.854c0,0-0.013-0.201-0.296-0.458
			c2.246-1.554,5.202-3.239,7.844-4.475c-0.213-0.109-0.37-0.269-0.466-0.271l-4.533,1.662h-1.098
			c-0.031-0.262-0.275-0.076-0.275-0.543c0-0.672,5.615-3.42,7.105-4.376c-0.209-0.118,0-0.278-0.613-0.278
			c-0.613,0-4.122,1.486-6.148,2.045c-0.307-0.21-0.833-0.276-0.833-0.742c0-1.304,5.378-3.588,6.86-4.381
			c-0.211-0.114,0.122-0.274-0.491-0.274c-0.613,0-3.749,1.483-5.536,2.047l-0.587-0.469c1.258-0.989,2.981-2.112,4.408-2.977
			l-0.376-0.276c-0.151,0.162-0.638,0.162-1.169,0.547h-0.855c0,0-0.295,0.014-0.295-0.452c0-0.463,2.248-1.558,3.676-2.423
			c-0.211-0.116,0.12-0.276-0.493-0.276c-0.609,0-1.046,0.363-1.61,0.555c-0.312-0.21-0.594-0.181-0.594-0.649
			c0-0.464,1.996-1.552,2.94-2.232c-0.209-0.12,0.124-0.279-0.489-0.279c-0.613,0-1.347,0.559-1.939,0.532v-0.652
			c0.235-0.384,0.958-0.343,0.958-0.809c0-0.466-0.49-0.185-0.49-0.651c0-0.463,0.981-0.463,0.981-0.929
			c0-0.466-0.735-0.466-0.735-0.933c0-0.463,1.47-0.743,1.47-1.209c0-0.466-0.493-0.28-0.493-0.744c0-0.465,0.493-0.188,0.493-0.651
			C69.278,29.84,69.977,31.327,69.765,31.448"/>
		<path style="fill:#309A47;" d="M74.083,54.467h1.312c-4.788,3.016-10.996,4.666-16.407,8.436l0.398,0.281
			c4.943-1.601,10.349-4.305,16.247-5.35c-4.074,2.651-11.423,5.161-15.421,7.677l0.387,0.278c0.647-0.359,2.06-1.118,2.675-1.118
			c0.613,0,0.087,0.213,0.255,0.372c3.713-2.101,7.778-3.016,12.472-4.655l1.113,0.268c-3.823,1.998-9.053,3.32-13.473,5.788
			l0.376,0.273c0.393-0.348,1.148-0.357,1.845-0.602c-2.772,1.334-6.212,2.64-9.55,3.727c2.679-2.143,7.143-3.742,11.02-5.497v-0.47
			c-0.44-0.146-0.507,0.05-1.118,0.05c-0.613,0-4.847,1.852-7.39,2.788c0,0-0.329,0.004-0.329-0.462
			c0-1.188,9.337-5.081,11.761-6.153c-0.21-0.109,0-0.269-0.613-0.269c-0.612,0-0.612,0.187-1.225,0.187
			c-0.611,0-6.804,2.781-10.263,4.068h-1.118c1.509-1.839,7.094-4.159,7.094-4.534c0-0.463,3.502-1.761,5.182-2.299
			c0,0-0.002-0.183,0.207-0.306c-0.209-0.12,0-0.279-0.614-0.279c-0.611,0-2.409,0.925-4.031,1.247
			C68.124,56.673,73.472,54.432,74.083,54.467"/>
		<path style="fill:#309A47;" d="M63.527,57.41c0.323,0.214-1.111,0.559-1.111,1.025c0,0.465,0.211,0.306,0.491,0.571
			c-1.047,0.444-2.028,0.999-3.035,1.359h-0.867C59.73,58.774,61.913,58.36,63.527,57.41"/>
		<path style="fill:#309A47;" d="M78.826,62.314c-2.513,1.041-5.456,2.159-8.302,3.061l0.468-0.429l-0.374-0.276
			c-1.402,1.227-5.024,2.807-7.698,3.668c0.607-0.332,5.621-1.971,5.621-2.921c0-0.794,5.42-2.048,5.514-2.048
			c0.213,0,0.122-0.121,0.122-0.279C74.176,62.623,76.975,62.437,78.826,62.314"/>
		<path style="fill:#309A47;" d="M80.636,63.388h1.112c-0.289,0.889-3.168,1.256-4.142,1.933c0.209,0.12,0.699,0.307,0.858,0.467
			c0.158-0.16,0.122-0.28,0.158-0.517h1.183c-2.609,1.84-7.401,3.108-11.019,4.713l0.488,0.384c0,0-0.279,0.043-0.488,0.164
			l0.397,0.281c0.407-0.178,0.64-0.544,1.432-0.932c0,0,0.341,0.027,0.612,0.313c-0.358,0.059-0.518,0.032-0.734,0.187
			c0.009,4.991,0.253,5.549,0.253,6.015c0,2.092,2.511,2.604,3.799,2.604c0.611,0,1.263-0.367,1.913-0.177
			c0.548-0.888,0.941,0.092,2.338,0.206c0.157-0.029,0.647,0.157,0.821,0.177c1.646-0.048,2.379-0.35,2.748,0.166
			c1.507,0.215,1.702,0.457,2.533,0.392h1.078c0.799,0.19,1.919-0.672,1.883,0.008c0.158-0.028,0.407,0.159,1.089,0.168
			c0.456-0.354,2.406-0.569,2.865-0.569c0.614,0,3.307-0.185,3.92-0.185c0.613,0,1.103-0.37,1.715-0.37
			c3.123,0,5.352,0.776,7.839,1.773c-0.819,0.265-2.083,0.458-2.695,0.458c-0.612,0-4.655-0.932-5.267-0.932
			c-0.61,0-1.469,0.559-2.082,0.559c-0.612,0-0.488-0.374-1.103-0.374c-3,0-6.583,0.747-10.166,0.747
			c-0.61,0-3.185-0.373-3.796-0.373c-0.613,0-0.246-0.374-0.857-0.374c-0.613,0-0.735,0.374-1.349,0.374
			c-0.612,0-1.103-0.559-1.716-0.559c-0.611,0-1.592,0.374-2.201,0.374c-0.613,0-0.857-0.374-1.471-0.374
			c-0.614,0-0.737,0.374-1.349,0.374c-0.611,0-1.837-0.374-2.451-0.374c-0.612,0-11.023,1.117-11.635,1.117
			c-0.613,0-0.613-0.558-1.225-0.558c-0.614,0-2.359,0.558-2.97,0.534h-1.795c0.831-1.139,4.644-1.838,5.255-1.838
			c0.611,0,1.346,0.372,1.96,0.372c5.911,0,9.187-1.046,9.187-5.024c0-0.465,0.488-1.674,0.488-2.141
			c0-0.463-0.454-0.864-0.904-1.216c-0.197,0.009-0.632,0.372-1.165,0.566l-1.113-0.262c3.008-2.179,5.383-2.563,7.839-3.749
			l-0.635-0.457c-2.857,1.293-6.289,2.411-9.992,3.871h-0.885c1.575-1.037,2.807-1.701,4.656-2.124
			c-0.212-0.1-0.127-0.258-0.739-0.258c-0.613,0-1.047,0.363-1.693,0.518c0.26-0.306,0.222-0.426,0.271-0.686
			c1.45,0.24,1.421-0.575,2.034-0.575c0.613,0,0.821,0.398,0.981,0.557c0.402-0.345,0.244-0.744,0.438-0.737
			c0.663-0.603,3.877-1.683,5.195-1.683c0.612,0,0.122-0.092,0.198-0.363l0.539,0.363c0.154-0.157,0.154-0.21-0.103-0.518
			c0,0,0.429-0.011,0.58,0.149C74.719,64.642,78.584,64.309,80.636,63.388"/>
		<path style="fill:#309A47;" d="M15.859,47.753c0.139,0.08,0.485,0.183,0.485,0.489c0,0.31-0.507,0.539-0.808,0.739
			c0.136,0.081,0.406,0.186,0.622,0.203c0.025,0.291-0.485,0.702-0.785,0.906l0.485,0.363c-0.17,0.279-0.511,0.544-0.972,0.868
			l0.262,0.188c0.269-0.118,0.766-0.37,1.308-0.491c0,0,0.212-0.006,0.212,0.303c0,0.308-1.32,1.027-2.107,1.603
			c0.139,0.077-0.077,0.183,0.325,0.183c0.406,0,1.491-0.481,2.179-0.861c0,0,0.171,0.123,0.404,0.155
			c-0.713,0.877-2.25,1.615-3.556,2.371l0.261,0.182c0.596-0.239,1.4-0.607,2.239-0.984l0.742,0.172
			c-1.324,0.919-2.787,1.786-4.213,2.601l0.261,0.182c1.163-0.413,2.657-1.402,4.43-1.322c-1.265,1.358-3.956,2.185-5.193,3.56
			c1.453-0.33,3.227-1.021,5.265-1.625c0.179,0,0.396,0.142,0.582,0.311c-1.646,1.152-3.59,2.137-5.346,3.322l0.261,0.185
			c1.889-0.735,5.268-2.095,5.673-2.084h0.69v0.455c-2.661,0.99-4.53,2.014-7.112,3.539l0.256,0.182
			c1.685-0.853,5.404-1.934,7.51-2.557c-2.181,1.587-5.327,2.608-8.069,4.136c1.321-1.039,3.128-1.824,4.846-2.852
			c-0.084,0.042,0.074-0.081-0.33-0.081c-0.75,0-3.994,1.446-4.749,1.962h-0.564c0,0-0.01-0.136-0.196-0.302
			c1.485-1.027,3.441-2.144,5.188-2.959c-0.142-0.075-0.244-0.177-0.307-0.18l-2.999,1.098h-0.726
			c-0.022-0.175-0.184-0.05-0.184-0.358c0-0.446,3.716-2.262,4.699-2.894c-0.136-0.079,0-0.185-0.403-0.185
			c-0.407,0-2.727,0.981-4.069,1.352c-0.203-0.138-0.551-0.183-0.551-0.489c0-0.863,3.556-2.373,4.537-2.898
			c-0.139-0.077,0.083-0.182-0.324-0.182c-0.403,0-2.48,0.982-3.66,1.354l-0.389-0.31c0.833-0.656,1.973-1.397,2.916-1.969
			l-0.249-0.181c-0.1,0.105-0.423,0.105-0.773,0.361h-0.567c0,0-0.195,0.009-0.195-0.3c0-0.307,1.49-1.032,2.433-1.604
			c-0.141-0.076,0.081-0.181-0.327-0.181c-0.403,0-0.69,0.238-1.064,0.367c-0.208-0.139-0.394-0.123-0.394-0.431
			c0-0.306,1.32-1.026,1.947-1.476c-0.139-0.081,0.08-0.184-0.325-0.184c-0.406,0-0.889,0.367-1.284,0.351v-0.429
			c0.16-0.256,0.635-0.231,0.635-0.537c0-0.31-0.323-0.124-0.323-0.433c0-0.306,0.65-0.306,0.65-0.615
			c0-0.309-0.489-0.309-0.489-0.615c0-0.308,0.975-0.491,0.975-0.802c0-0.306-0.327-0.187-0.327-0.493
			c0-0.306,0.327-0.123,0.327-0.43C15.537,46.691,15.998,47.673,15.859,47.753"/>
		<path style="fill:#309A47;" d="M18.714,62.98h0.87c-3.167,1.994-7.275,3.086-10.854,5.581l0.265,0.186
			c3.268-1.06,6.845-2.85,10.746-3.539c-2.695,1.752-7.554,3.412-10.199,5.076l0.255,0.183c0.427-0.235,1.363-0.739,1.767-0.739
			c0.408,0,0.058,0.142,0.17,0.248c2.459-1.392,5.144-1.995,8.25-3.08l0.735,0.177c-2.526,1.322-5.986,2.196-8.912,3.83l0.25,0.179
			c0.261-0.229,0.761-0.236,1.22-0.398c-1.833,0.882-4.109,1.747-6.314,2.464c1.77-1.416,4.722-2.473,7.287-3.635v-0.309
			c-0.29-0.097-0.335,0.032-0.739,0.032c-0.406,0-3.206,1.224-4.888,1.843c0,0-0.217,0.002-0.217-0.304
			c0-0.788,6.178-3.362,7.778-4.072c-0.138-0.073,0-0.178-0.405-0.178c-0.404,0-0.404,0.123-0.81,0.123
			c-0.406,0-4.503,1.842-6.786,2.69H7.44c0.999-1.214,4.692-2.749,4.692-2.996c0-0.308,2.318-1.164,3.427-1.522
			c0,0,0-0.123,0.139-0.201c-0.139-0.078,0-0.185-0.406-0.185c-0.406,0-1.595,0.612-2.667,0.822
			C14.773,64.441,18.31,62.957,18.714,62.98"/>
		<path style="fill:#309A47;" d="M11.732,64.928c0.215,0.139-0.735,0.37-0.735,0.676c0,0.308,0.139,0.203,0.323,0.381
			c-0.689,0.29-1.339,0.66-2.004,0.896H8.74C9.221,65.83,10.663,65.556,11.732,64.928"/>
		<path style="fill:#309A47;" d="M21.85,68.171c-1.661,0.691-3.607,1.427-5.488,2.023l0.309-0.281l-0.249-0.184
			c-0.929,0.812-3.323,1.858-5.09,2.428c0.401-0.221,3.718-1.304,3.718-1.936c0-0.525,3.586-1.354,3.646-1.354
			c0.141,0,0.081-0.077,0.081-0.184C18.777,68.373,20.628,68.253,21.85,68.171"/>
		<path style="fill:#309A47;" d="M23.049,68.883h0.739c-0.195,0.585-2.099,0.828-2.743,1.276c0.138,0.082,0.464,0.204,0.566,0.307
			c0.107-0.103,0.082-0.183,0.107-0.336H22.5c-1.724,1.215-4.898,2.053-7.29,3.117l0.323,0.252c0,0-0.184,0.03-0.323,0.108
			l0.261,0.187c0.271-0.116,0.421-0.361,0.95-0.617c0,0,0.223,0.017,0.403,0.208c-0.237,0.039-0.34,0.021-0.485,0.124
			c0.006,3.299,0.167,3.669,0.167,3.977c0,1.384,1.662,1.725,2.513,1.725c0.406,0,0.835-0.245,1.265-0.118
			c0.363-0.588,0.623,0.059,1.545,0.134c0.106-0.015,0.431,0.105,0.545,0.118c1.088-0.031,1.575-0.23,1.819,0.112
			c0.996,0.139,1.124,0.301,1.675,0.257h0.712c0.529,0.125,1.27-0.444,1.246,0.007c0.105-0.019,0.269,0.104,0.723,0.11
			c0.297-0.234,1.591-0.375,1.895-0.375c0.406,0,2.188-0.123,2.594-0.123c0.403,0,0.727-0.243,1.131-0.243
			c2.067,0,3.541,0.512,5.186,1.172c-0.542,0.177-1.376,0.302-1.78,0.302c-0.406,0-3.079-0.615-3.486-0.615
			c-0.406,0-0.974,0.37-1.378,0.37c-0.403,0-0.323-0.247-0.729-0.247c-1.985,0-4.353,0.492-6.725,0.492
			c-0.403,0-2.105-0.245-2.511-0.245c-0.406,0-0.163-0.247-0.566-0.247c-0.406,0-0.487,0.247-0.892,0.247
			c-0.405,0-0.731-0.37-1.136-0.37c-0.404,0-1.052,0.245-1.457,0.245c-0.405,0-0.567-0.245-0.972-0.245
			c-0.405,0-0.485,0.245-0.892,0.245c-0.402,0-1.216-0.245-1.621-0.245c-0.403,0-7.291,0.742-7.698,0.742
			c-0.403,0-0.403-0.372-0.809-0.372c-0.405,0-1.558,0.372-1.964,0.352H3.553c0.551-0.754,3.071-1.216,3.473-1.216
			c0.408,0,0.893,0.247,1.299,0.247c3.908,0,6.076-0.691,6.076-3.324c0-0.306,0.323-1.107,0.323-1.416
			c0-0.306-0.3-0.571-0.596-0.802c-0.131,0.004-0.419,0.24-0.772,0.372l-0.735-0.171c1.989-1.446,3.559-1.695,5.185-2.482
			l-0.421-0.302c-1.89,0.853-4.162,1.594-6.609,2.56h-0.586c1.043-0.686,1.857-1.128,3.082-1.407
			c-0.144-0.063-0.085-0.167-0.491-0.167c-0.405,0-0.691,0.238-1.117,0.341c0.17-0.201,0.145-0.283,0.176-0.452
			c0.961,0.157,0.941-0.384,1.346-0.384c0.406,0,0.545,0.265,0.65,0.37c0.265-0.228,0.162-0.491,0.289-0.485
			c0.44-0.402,2.567-1.114,3.436-1.114c0.406,0,0.083-0.064,0.133-0.24l0.357,0.24c0.104-0.107,0.104-0.142-0.069-0.346
			c0,0,0.287-0.006,0.383,0.099C19.134,69.71,21.691,69.493,23.049,68.883"/>
		<path style="fill:#309A47;" d="M16.018,47.954c0.141,0.08,0.486,0.185,0.486,0.493c0,0.307-0.508,0.534-0.809,0.737
			c0.137,0.079,0.406,0.185,0.625,0.204c0.024,0.289-0.489,0.703-0.788,0.906l0.485,0.361c-0.169,0.282-0.509,0.544-0.972,0.871
			l0.264,0.185c0.269-0.117,0.763-0.367,1.308-0.489c0,0,0.211-0.004,0.211,0.304c0,0.308-1.32,1.028-2.108,1.601
			c0.138,0.078-0.077,0.187,0.325,0.187c0.405,0,1.494-0.481,2.181-0.865c0,0,0.171,0.123,0.404,0.156
			c-0.712,0.881-2.251,1.617-3.557,2.372l0.261,0.18c0.594-0.238,1.4-0.606,2.238-0.985l0.741,0.175
			c-1.321,0.919-2.786,1.783-4.213,2.6l0.261,0.182c1.162-0.413,2.657-1.402,4.43-1.322c-1.265,1.356-3.954,2.185-5.193,3.56
			c1.453-0.331,3.227-1.021,5.268-1.626c0.178,0,0.396,0.142,0.582,0.309c-1.648,1.155-3.592,2.139-5.348,3.327l0.261,0.183
			c1.891-0.735,5.268-2.092,5.673-2.085h0.692v0.458c-2.661,0.989-4.531,2.012-7.113,3.539l0.258,0.182
			c1.684-0.854,5.404-1.936,7.507-2.56c-2.179,1.587-5.326,2.607-8.069,4.136c1.323-1.039,3.129-1.826,4.847-2.85
			c-0.085,0.039,0.077-0.082-0.33-0.082c-0.748,0-3.995,1.446-4.75,1.962h-0.564c0,0-0.009-0.132-0.195-0.302
			c1.486-1.028,3.439-2.141,5.187-2.959c-0.142-0.074-0.245-0.177-0.307-0.18l-2.999,1.1h-0.726
			c-0.019-0.174-0.181-0.052-0.181-0.361c0-0.446,3.714-2.259,4.699-2.895c-0.139-0.076-0.002-0.181-0.405-0.181
			c-0.404,0-2.725,0.981-4.069,1.354c-0.201-0.141-0.549-0.185-0.549-0.493c0-0.861,3.56-2.371,4.539-2.898
			c-0.142-0.077,0.08-0.18-0.325-0.18c-0.406,0-2.48,0.98-3.663,1.354l-0.389-0.311c0.833-0.653,1.973-1.397,2.916-1.97
			l-0.249-0.181c-0.098,0.107-0.423,0.107-0.772,0.361h-0.566c0,0-0.195,0.009-0.195-0.298c0-0.308,1.488-1.032,2.43-1.602
			c-0.139-0.079,0.081-0.184-0.325-0.184c-0.404,0-0.691,0.24-1.065,0.369c-0.207-0.142-0.393-0.123-0.393-0.431
			c0-0.306,1.319-1.027,1.945-1.475c-0.139-0.079,0.081-0.185-0.325-0.185c-0.404,0-0.889,0.37-1.282,0.351V51.63
			c0.158-0.256,0.634-0.23,0.634-0.536c0-0.306-0.324-0.122-0.324-0.432c0-0.306,0.65-0.306,0.65-0.613
			c0-0.311-0.489-0.311-0.489-0.617c0-0.309,0.974-0.491,0.974-0.8c0-0.309-0.325-0.185-0.325-0.493c0-0.309,0.325-0.124,0.325-0.43
			C15.695,46.893,16.158,47.872,16.018,47.954"/>
		<path style="fill:#309A47;" d="M18.874,63.181h0.87c-3.167,1.996-7.275,3.086-10.854,5.581l0.265,0.185
			c3.27-1.058,6.847-2.845,10.746-3.54c-2.693,1.754-7.554,3.417-10.201,5.082l0.257,0.183c0.427-0.238,1.364-0.74,1.77-0.74
			c0.406,0,0.058,0.139,0.168,0.245c2.456-1.388,5.144-1.996,8.25-3.078l0.735,0.18c-2.526,1.32-5.986,2.195-8.91,3.827l0.247,0.178
			c0.261-0.227,0.761-0.234,1.222-0.398c-1.835,0.886-4.112,1.747-6.316,2.465c1.769-1.416,4.722-2.471,7.286-3.632v-0.313
			c-0.29-0.096-0.335,0.033-0.739,0.033c-0.406,0-3.206,1.224-4.888,1.843c0,0-0.218,0.002-0.218-0.306
			c0-0.783,6.178-3.359,7.779-4.07c-0.139-0.07,0-0.177-0.406-0.177c-0.404,0-0.404,0.125-0.811,0.125
			c-0.405,0-4.502,1.841-6.786,2.69H7.6c0.998-1.216,4.692-2.754,4.692-3.001c0-0.306,2.318-1.162,3.429-1.52
			c0,0-0.002-0.123,0.137-0.201c-0.139-0.081,0-0.183-0.406-0.183c-0.406,0-1.595,0.612-2.667,0.822
			C14.933,64.642,18.472,63.159,18.874,63.181"/>
		<path style="fill:#309A47;" d="M11.89,65.129c0.216,0.141-0.732,0.37-0.732,0.676c0,0.309,0.139,0.203,0.323,0.381
			c-0.692,0.291-1.341,0.661-2.006,0.898H8.901C9.38,66.031,10.823,65.757,11.89,65.129"/>
		<path style="fill:#309A47;" d="M22.01,68.373c-1.658,0.689-3.608,1.431-5.491,2.023l0.311-0.281l-0.248-0.183
			c-0.929,0.811-3.324,1.856-5.09,2.428c0.399-0.219,3.718-1.304,3.718-1.936c0-0.523,3.586-1.354,3.646-1.354
			c0.141,0,0.081-0.076,0.081-0.183C18.936,68.577,20.788,68.454,22.01,68.373"/>
		<path style="fill:#309A47;" d="M23.209,69.084h0.738c-0.192,0.587-2.098,0.831-2.743,1.28c0.141,0.079,0.464,0.201,0.566,0.306
			c0.106-0.105,0.084-0.183,0.106-0.339h0.784c-1.727,1.216-4.898,2.053-7.288,3.117l0.323,0.252c0,0-0.186,0.032-0.323,0.111
			l0.259,0.185c0.271-0.121,0.423-0.361,0.95-0.617c0,0,0.223,0.016,0.404,0.206c-0.237,0.039-0.342,0.02-0.488,0.126
			c0.007,3.299,0.168,3.669,0.168,3.975c0,1.386,1.662,1.724,2.513,1.724c0.405,0,0.835-0.242,1.265-0.119
			c0.363-0.587,0.623,0.063,1.545,0.137c0.106-0.018,0.431,0.105,0.545,0.118c1.088-0.031,1.575-0.232,1.819,0.11
			c0.996,0.142,1.124,0.302,1.675,0.259h0.712c0.529,0.123,1.269-0.443,1.245,0.005c0.107-0.017,0.269,0.105,0.723,0.109
			c0.298-0.231,1.591-0.373,1.893-0.373c0.408,0,2.191-0.123,2.594-0.123c0.406,0,0.73-0.247,1.135-0.247
			c2.065,0,3.539,0.516,5.184,1.174c-0.542,0.178-1.377,0.304-1.782,0.304c-0.403,0-3.077-0.615-3.485-0.615
			c-0.403,0-0.972,0.367-1.377,0.367c-0.403,0-0.323-0.245-0.728-0.245c-1.983,0-4.356,0.492-6.723,0.492
			c-0.408,0-2.108-0.247-2.513-0.247c-0.404,0-0.163-0.245-0.567-0.245c-0.406,0-0.485,0.245-0.891,0.245
			c-0.406,0-0.731-0.367-1.136-0.367c-0.403,0-1.052,0.245-1.458,0.245c-0.405,0-0.567-0.245-0.972-0.245
			c-0.403,0-0.485,0.245-0.891,0.245c-0.405,0-1.216-0.245-1.618-0.245c-0.408,0-7.293,0.737-7.698,0.737
			c-0.406,0-0.406-0.37-0.811-0.37c-0.405,0-1.559,0.37-1.965,0.352H3.713c0.548-0.754,3.07-1.213,3.475-1.213
			c0.406,0,0.892,0.247,1.297,0.247c3.908,0,6.076-0.694,6.076-3.325c0-0.306,0.325-1.108,0.325-1.418c0-0.306-0.3-0.57-0.599-0.805
			c-0.131,0.005-0.421,0.245-0.772,0.375l-0.735-0.171c1.989-1.444,3.559-1.697,5.185-2.48l-0.421-0.302
			c-1.89,0.853-4.162,1.592-6.612,2.561h-0.581c1.041-0.686,1.854-1.128,3.077-1.407c-0.141-0.065-0.081-0.17-0.485-0.17
			c-0.408,0-0.695,0.24-1.12,0.343c0.169-0.201,0.145-0.281,0.176-0.455c0.961,0.16,0.944-0.381,1.349-0.381
			c0.403,0,0.54,0.265,0.647,0.368c0.265-0.225,0.162-0.49,0.289-0.484c0.437-0.4,2.567-1.115,3.438-1.115
			c0.403,0,0.081-0.063,0.13-0.242l0.355,0.242c0.106-0.105,0.106-0.142-0.067-0.343c0,0,0.287-0.009,0.383,0.096
			C19.294,69.913,21.85,69.694,23.209,69.084"/>
		<path style="fill:#309A47;" d="M0.039,85.387c0-2.729,2.212-4.944,4.943-4.944h142.005c2.732,0,4.942,2.215,4.942,4.944v29.666
			c0,2.729-2.211,4.944-4.942,4.944H4.982c-2.731,0-4.943-2.214-4.943-4.944V85.387z"/>
		<path style="fill:#1EAAE2;" d="M1.093,118.105c4.388-2.729,7.775-5.623,13.582-5.623c3.263,0,5.142,0.793,8.405,0.793l13.745,0.79
			c7.615,0,6.625-5.935,14.242-5.935c6.723,0,7.118-3.956,13.844-3.956l9.494,0.395c5.931,0,2.372,0.792,12.656-1.581
			c2.025-0.468,5.238-4.658,7.119-5.537c5.934-2.768,5.144-0.395,9.891-4.746c4.619-4.236,8.11-3.167,14.337-3.167h19.184
			c4.462,0,9.658,0.242,14.338-0.139v25.654c0,2.732-2.213,4.946-4.942,4.946H4.983C3.405,120,1.997,119.258,1.093,118.105"/>
	</g>
	<g>
		<path style="fill:#F7EB19;" d="M1.183,119.097l-0.411-0.649c0.798-0.505,1.575-1.04,2.398-1.606
			c3.402-2.339,6.919-4.757,11.525-4.757c1.66,0,2.981,0.202,4.258,0.399c1.25,0.192,2.542,0.39,4.145,0.39l13.761,0.793
			c3.638,0,5.194-1.392,6.841-2.865c1.682-1.504,3.421-3.06,7.374-3.06c3.261,0,4.948-0.935,6.733-1.926
			c1.792-0.994,3.646-2.022,7.106-2.022l9.507,0.394c0.005,0,0.01,0,0.015,0c1.461,0,2.358,0.05,3.013,0.086
			c0.409,0.023,0.731,0.038,1.047,0.038c1.154-0.006,2.33-0.277,7.98-1.58l0.495-0.114c1.029-0.237,2.548-1.675,3.888-2.944
			c1.165-1.103,2.266-2.146,3.153-2.559c2.408-1.123,3.763-1.421,4.752-1.638c1.459-0.321,2.263-0.497,5.036-3.036
			c3.911-3.579,7.1-3.473,11.513-3.327c0.972,0.032,1.976,0.066,3.081,0.066h19.177c0.807,0,1.639,0.004,2.488,0.007
			c3.759,0.016,8.02,0.035,11.837-0.277l0.063,0.766c-3.85,0.315-8.128,0.297-11.903,0.28c-0.848-0.004-1.679-0.008-2.485-0.008
			h-19.177c-1.118,0-2.129-0.034-3.107-0.066c-4.391-0.147-7.289-0.242-10.969,3.126c-2.926,2.678-3.854,2.881-5.39,3.219
			c-1.007,0.221-2.26,0.497-4.592,1.584c-0.774,0.361-1.88,1.408-2.95,2.421c-1.48,1.401-3.011,2.851-4.244,3.134l-0.494,0.114
			c-5.72,1.318-6.91,1.593-8.148,1.599c-0.339,0.005-0.672-0.016-1.095-0.039c-0.649-0.036-1.537-0.086-3.001-0.086l-9.507-0.394
			c-3.245,0-4.932,0.936-6.718,1.926c-1.792,0.994-3.646,2.022-7.106,2.022c-3.659,0-5.215,1.391-6.861,2.864
			c-1.682,1.505-3.422,3.06-7.376,3.06l-13.761-0.793c-0.002,0-0.005,0-0.008,0c-1.636,0-2.955-0.202-4.231-0.398
			c-1.249-0.192-2.541-0.39-4.142-0.39c-4.368,0-7.785,2.35-11.09,4.622C2.813,118.02,1.993,118.583,1.183,119.097z"/>
	</g>
	<g>
		<path style="fill:#F7EB19;" d="M92.16,85.995l6.032,1.385c0.01,0.083,0.016,0.178,0.016,0.285s0,0.229,0,0.361
			c0,0.246-0.003,0.506-0.008,0.777c-0.006,0.271-0.019,0.511-0.039,0.716c-0.267,0.913-0.559,1.746-0.877,2.5
			s-0.697,1.46-1.139,2.116c-0.503,0.77-1.1,1.475-1.793,2.115c-0.692,0.642-1.521,1.27-2.484,1.885l1.4,3.324
			c0.205,0.492,0.382,0.905,0.53,1.238c0.148,0.334,0.285,0.624,0.408,0.87c0.226,0.451,0.451,0.83,0.677,1.139
			c0.226,0.308,0.508,0.62,0.847,0.938c-0.452,0.451-0.905,0.893-1.362,1.323c-0.456,0.431-0.915,0.861-1.377,1.292l-0.6-0.522
			c-0.298-0.287-0.557-0.567-0.777-0.839s-0.424-0.554-0.608-0.847c-0.185-0.292-0.358-0.61-0.522-0.954s-0.339-0.726-0.523-1.146
			l-7.001-16.388l3.708-1.555l3.831,9.032c0.585-0.369,1.077-0.792,1.478-1.27c0.4-0.477,0.738-1.008,1.016-1.592
			c0.194-0.39,0.366-0.801,0.516-1.231c0.148-0.431,0.279-0.882,0.393-1.354l-2.478-0.584L92.16,85.995z"/>
		<path style="fill:#F7EB19;" d="M109.257,86.719v5.848c0,0.554-0.006,1.015-0.016,1.385c-0.011,0.369-0.031,0.707-0.062,1.016
			c-0.031,0.308-0.072,0.605-0.123,0.892c-0.052,0.288-0.118,0.605-0.2,0.954l-4.14-0.6c0.052-0.308,0.098-0.59,0.139-0.847
			c0.041-0.256,0.077-0.528,0.107-0.815c0.031-0.287,0.055-0.61,0.069-0.97c0.016-0.358,0.023-0.789,0.023-1.292v-2.231h-3.523
			v-3.339H109.257z"/>
		<path style="fill:#F7EB19;" d="M118.073,90.058c-0.522,0-0.984-0.008-1.385-0.022c-0.399-0.016-0.784-0.047-1.154-0.093
			c-0.369-0.046-0.746-0.118-1.131-0.216c-0.385-0.097-0.823-0.232-1.315-0.407c0.164-0.554,0.331-1.101,0.5-1.639
			c0.17-0.539,0.352-1.069,0.547-1.593c0.481,0.134,0.897,0.238,1.246,0.315s0.682,0.139,1,0.185s0.641,0.077,0.97,0.093
			c0.328,0.015,0.718,0.022,1.169,0.022h0.508h9.156c0.051,0.185,0.097,0.354,0.138,0.508c0.041,0.154,0.077,0.303,0.108,0.446
			c0.062,0.277,0.1,0.531,0.115,0.762s0.022,0.5,0.022,0.808v3.34c0,0.574-0.035,1.105-0.107,1.592
			c-0.071,0.487-0.177,0.949-0.315,1.385c-0.139,0.437-0.318,0.859-0.538,1.27c-0.221,0.411-0.475,0.826-0.762,1.247
			c-0.236,0.369-0.549,0.8-0.938,1.292c-0.391,0.492-0.806,1-1.247,1.523s-0.882,1.031-1.323,1.523s-0.831,0.924-1.169,1.293
			l-2.985-2.539l2.077-2.354c0.523-0.585,0.962-1.09,1.315-1.516c0.354-0.426,0.648-0.818,0.885-1.177
			c0.195-0.287,0.352-0.557,0.47-0.809c0.117-0.251,0.21-0.505,0.276-0.762c0.067-0.256,0.113-0.522,0.139-0.8
			s0.039-0.585,0.039-0.923v-2.755H118.073z M113.257,98.044c0-0.441,0.006-0.844,0.016-1.208c0.011-0.364,0.028-0.716,0.054-1.054
			c0.025-0.339,0.064-0.672,0.116-1c0.051-0.329,0.123-0.683,0.215-1.063c0.688,0.072,1.375,0.162,2.063,0.27
			c0.687,0.107,1.374,0.249,2.062,0.423c-0.123,0.575-0.208,1.152-0.254,1.731c-0.046,0.58-0.069,1.249-0.069,2.008v9.417h-4.201
			V98.044z"/>
		<path style="fill:#F7EB19;" d="M137.308,90.058c-0.523,0-0.985-0.008-1.385-0.022c-0.4-0.016-0.785-0.047-1.154-0.093
			s-0.746-0.118-1.131-0.216c-0.385-0.097-0.823-0.232-1.315-0.407c0.164-0.554,0.33-1.101,0.5-1.639
			c0.169-0.539,0.351-1.069,0.546-1.593c0.523,0.144,0.972,0.257,1.347,0.339c0.374,0.082,0.733,0.146,1.077,0.192
			c0.344,0.046,0.705,0.074,1.085,0.084c0.379,0.011,0.841,0.016,1.385,0.016h3.293c0.646,0,1.282,0.072,1.908,0.216
			c0.625,0.144,1.189,0.415,1.692,0.815c0.492,0.39,0.893,0.928,1.2,1.615s0.462,1.585,0.462,2.693v10.663h-4.201v-9.586
			c0-0.637-0.028-1.154-0.085-1.555s-0.182-0.713-0.377-0.938c-0.194-0.226-0.477-0.38-0.846-0.462
			c-0.37-0.082-0.862-0.123-1.478-0.123H137.308z M132.476,98.044c0-0.441,0.005-0.844,0.016-1.208
			c0.01-0.364,0.028-0.716,0.054-1.054c0.025-0.339,0.064-0.672,0.115-1c0.052-0.329,0.123-0.683,0.216-1.063
			c0.688,0.072,1.374,0.162,2.062,0.27s1.375,0.249,2.063,0.423c-0.123,0.575-0.208,1.152-0.254,1.731
			c-0.047,0.58-0.069,1.249-0.069,2.008v4.57h-4.201V98.044z"/>
	</g>
	<g>
		<path style="fill:#F7EB19;" d="M12.067,86.311c0.375,0,0.743,0.041,1.106,0.124c0.363,0.084,0.69,0.241,0.981,0.473
			c0.285,0.227,0.517,0.54,0.695,0.941c0.179,0.401,0.268,0.926,0.268,1.574v6.163H6.466v-5.102c0-0.369,0.025-0.743,0.076-1.124
			c0.051-0.38,0.129-0.775,0.237-1.187c-0.208-0.029-0.419-0.072-0.633-0.129c-0.214-0.057-0.461-0.132-0.74-0.228
			c0.095-0.321,0.191-0.638,0.29-0.95c0.098-0.312,0.204-0.619,0.317-0.923c0.303,0.083,0.563,0.148,0.78,0.196
			c0.217,0.048,0.425,0.085,0.625,0.111c0.199,0.027,0.409,0.043,0.628,0.049c0.22,0.007,0.488,0.01,0.803,0.01H12.067z M12.7,93.65
			v-3.621c0-0.368-0.016-0.669-0.049-0.9c-0.033-0.232-0.106-0.413-0.219-0.544s-0.276-0.221-0.49-0.268
			c-0.214-0.048-0.5-0.072-0.856-0.072H9.079c-0.095,0.411-0.151,0.787-0.169,1.129c-0.018,0.342-0.027,0.694-0.027,1.057v3.22H12.7
			z"/>
		<path style="fill:#F7EB19;" d="M21.575,86.311v3.389c0,0.321-0.003,0.589-0.009,0.803s-0.018,0.41-0.036,0.589
			c-0.018,0.179-0.042,0.351-0.071,0.518c-0.03,0.166-0.068,0.351-0.116,0.553l-2.399-0.348c0.03-0.179,0.056-0.342,0.08-0.491
			c0.024-0.148,0.044-0.306,0.063-0.473c0.018-0.166,0.031-0.354,0.04-0.562s0.014-0.458,0.014-0.749v-1.294h-2.042v-1.935H21.575z"
			/>
		<path style="fill:#F7EB19;" d="M28.032,86.311v3.389c0,0.321-0.003,0.589-0.009,0.803s-0.018,0.41-0.036,0.589
			c-0.018,0.179-0.042,0.351-0.071,0.518c-0.03,0.166-0.068,0.351-0.116,0.553l-2.399-0.348c0.03-0.179,0.056-0.342,0.08-0.491
			c0.024-0.148,0.044-0.306,0.063-0.473c0.018-0.166,0.031-0.354,0.04-0.562s0.014-0.458,0.014-0.749v-1.294h-2.042v-1.935H28.032z"
			/>
		<path style="fill:#F7EB19;" d="M36.309,86.311c0.375,0,0.743,0.041,1.106,0.124c0.362,0.084,0.689,0.241,0.981,0.473
			c0.285,0.227,0.517,0.54,0.696,0.941c0.178,0.401,0.268,0.926,0.268,1.574v6.172h-2.417v-5.565c0-0.368-0.016-0.669-0.049-0.9
			c-0.033-0.232-0.105-0.413-0.219-0.544c-0.113-0.131-0.276-0.221-0.49-0.268c-0.214-0.048-0.5-0.072-0.856-0.072h-1.801
			c-0.095,0.411-0.152,0.787-0.17,1.129c-0.018,0.342-0.026,0.694-0.026,1.057v5.155h-2.417v-5.102c0-0.369,0.025-0.743,0.076-1.124
			c0.05-0.38,0.129-0.775,0.236-1.187c-0.208-0.029-0.419-0.072-0.633-0.129s-0.461-0.132-0.74-0.228
			c0.095-0.321,0.192-0.638,0.29-0.95c0.098-0.312,0.204-0.619,0.317-0.923c0.303,0.083,0.563,0.148,0.78,0.196
			c0.217,0.048,0.425,0.085,0.625,0.111c0.199,0.027,0.409,0.043,0.629,0.049c0.22,0.007,0.487,0.01,0.803,0.01H36.309z"/>
		<path style="fill:#F7EB19;" d="M44.595,88.245c-0.303,0-0.571-0.004-0.803-0.013s-0.455-0.027-0.669-0.054
			c-0.214-0.026-0.433-0.068-0.656-0.125c-0.223-0.057-0.477-0.135-0.763-0.236c0.095-0.321,0.192-0.638,0.29-0.95
			c0.098-0.312,0.204-0.619,0.317-0.923c0.303,0.083,0.563,0.148,0.78,0.196c0.217,0.048,0.425,0.085,0.624,0.111
			c0.199,0.027,0.409,0.043,0.629,0.049c0.22,0.007,0.488,0.01,0.803,0.01h1.909c0.375,0,0.743,0.041,1.106,0.124
			c0.363,0.084,0.69,0.241,0.981,0.473c0.286,0.227,0.518,0.539,0.696,0.937c0.179,0.398,0.268,0.919,0.268,1.562v6.181h-2.435
			v-5.557c0-0.368-0.017-0.669-0.049-0.9c-0.033-0.232-0.105-0.413-0.218-0.544c-0.113-0.131-0.277-0.221-0.491-0.268
			c-0.214-0.048-0.5-0.072-0.856-0.072H44.595z M41.794,92.875c0-0.256,0.003-0.489,0.009-0.7s0.017-0.415,0.031-0.611
			c0.015-0.196,0.037-0.39,0.067-0.58c0.03-0.189,0.071-0.396,0.125-0.615c0.398,0.042,0.797,0.094,1.195,0.156
			c0.398,0.063,0.796,0.145,1.195,0.245c-0.071,0.333-0.12,0.668-0.147,1.004s-0.04,0.724-0.04,1.163v2.649h-2.435V92.875z"/>
		<path style="fill:#F7EB19;" d="M59.678,83.706v2.604h5.057c0.035,0.131,0.066,0.246,0.094,0.348
			c0.025,0.101,0.049,0.193,0.066,0.276c0.029,0.143,0.047,0.276,0.053,0.401s0.01,0.271,0.01,0.437v1.927
			c0,0.702-0.141,1.365-0.424,1.989s-0.703,1.248-1.262,1.873l-2.283,2.515l-1.73-1.472l1.008-1.142
			c0.428-0.481,0.787-0.881,1.074-1.199c0.289-0.318,0.521-0.605,0.695-0.86c0.176-0.256,0.301-0.501,0.375-0.736
			c0.074-0.234,0.111-0.51,0.111-0.825v-1.597h-5.279v-4.539H59.678z"/>
		<path style="fill:#F7EB19;" d="M70.005,93.784c0.119,0.012,0.239,0.021,0.361,0.027s0.255,0.009,0.397,0.009
			c0.351,0,0.715-0.033,1.092-0.099c0.378-0.065,0.745-0.178,1.102-0.339c0.357-0.16,0.696-0.377,1.018-0.651
			c0.32-0.273,0.598-0.621,0.829-1.043c0.339-0.595,0.572-1.207,0.7-1.838c0.128-0.63,0.191-1.266,0.191-1.908
			c0-0.256-0.009-0.509-0.026-0.758c-0.018-0.25-0.042-0.503-0.071-0.759c0.256-0.065,0.476-0.12,0.66-0.165
			c0.184-0.044,0.362-0.083,0.535-0.115c0.172-0.033,0.356-0.064,0.553-0.094c0.196-0.03,0.434-0.063,0.714-0.099
			c0.059,0.256,0.101,0.534,0.124,0.834c0.024,0.301,0.036,0.608,0.036,0.923c0,0.292-0.011,0.577-0.031,0.856
			c-0.021,0.28-0.046,0.538-0.076,0.776c-0.297,2.2-1.091,3.838-2.381,4.914s-3.077,1.614-5.36,1.614
			c-0.393,0-0.799-0.015-1.218-0.044c-0.419-0.03-0.86-0.071-1.324-0.125l-0.401-5.379c-0.024-0.309-0.043-0.581-0.058-0.815
			c-0.016-0.235-0.03-0.444-0.045-0.629s-0.034-0.355-0.058-0.513c-0.024-0.158-0.056-0.315-0.094-0.473
			c-0.039-0.158-0.088-0.323-0.147-0.495c-0.06-0.173-0.134-0.372-0.223-0.598c0.351-0.137,0.706-0.282,1.065-0.438
			c0.359-0.154,0.718-0.288,1.075-0.401c0.16,0.346,0.285,0.662,0.374,0.95s0.157,0.578,0.205,0.87
			c0.048,0.291,0.083,0.601,0.107,0.927c0.023,0.327,0.05,0.702,0.08,1.124L70.005,93.784z M70.87,89.352
			c0.09-0.25,0.165-0.462,0.228-0.638s0.114-0.331,0.156-0.469c0.042-0.137,0.071-0.266,0.089-0.388
			c0.019-0.122,0.027-0.251,0.027-0.388c0-0.048,0-0.094,0-0.139c0-0.044-0.003-0.094-0.009-0.146c0-0.096-0.008-0.196-0.022-0.304
			c-0.016-0.107-0.034-0.229-0.059-0.365c0.393-0.119,0.781-0.222,1.164-0.308c0.384-0.087,0.771-0.171,1.164-0.255
			c0.077,0.268,0.134,0.51,0.17,0.728c0.035,0.217,0.053,0.43,0.053,0.638c0,0.172-0.013,0.346-0.04,0.521
			c-0.026,0.176-0.066,0.361-0.12,0.558s-0.12,0.41-0.2,0.642c-0.081,0.232-0.175,0.491-0.281,0.776l-0.598,1.578
			c-0.25-0.064-0.459-0.121-0.629-0.169c-0.169-0.048-0.33-0.099-0.481-0.151c-0.151-0.054-0.31-0.115-0.473-0.184
			c-0.164-0.068-0.361-0.158-0.594-0.271L70.87,89.352z"/>
	</g>
</g>
</svg>
