<?xml version="1.0" encoding="iso-8859-1"?>
<!-- Generator: Adobe Illustrator 17.1.0, SVG Export Plug-In . SVG Version: 6.00 Build 0)  -->
<!DOCTYPE svg PUBLIC "-//W3C//DTD SVG 1.1//EN" "http://www.w3.org/Graphics/SVG/1.1/DTD/svg11.dtd">
<svg version="1.1" id="Layer_1" xmlns="http://www.w3.org/2000/svg" xmlns:xlink="http://www.w3.org/1999/xlink" x="0px" y="0px"
	 viewBox="0 0 22.001 22.001" style="enable-background:new 0 0 22.001 22.001;" xml:space="preserve">
<path style="fill:#FFFFFF;" d="M17.341,22.001h-0.264c-2.908,0-8.565-2.802-11.42-5.657C2.802,13.489,0,7.833,0,4.925V4.66
	l0.147-0.22C1.037,3.105,3.284,0,4.925,0c1.503,0,4.184,2.588,4.938,4.409c0.564,1.362,0.073,2.141-0.27,2.484
	c-0.588,0.588-1.166,0.945-1.63,1.232c-0.754,0.466-0.814,0.556-0.814,0.85c0,0.988,1.243,2.231,2.444,3.433
	c1.202,1.202,2.444,2.444,3.433,2.444c0.295,0,0.384-0.06,0.85-0.814c0.287-0.465,0.644-1.043,1.232-1.63
	c0.345-0.345,0.803-0.528,1.323-0.528c2.129,0,5.57,3.497,5.57,5.196c0,1.641-3.105,3.888-4.44,4.778L17.341,22.001z M1.757,5.18
	c0.168,2.541,2.72,7.512,5.136,9.929c2.417,2.417,7.388,4.968,9.929,5.136c1.731-1.189,3.325-2.656,3.43-3.172
	c-0.114-0.834-2.653-3.444-3.82-3.444c-0.021,0-0.073,0.002-0.087,0.016c-0.444,0.444-0.717,0.886-0.981,1.313
	c-0.476,0.77-1.015,1.643-2.337,1.643c-1.712,0-3.215-1.503-4.668-2.956c-1.454-1.454-2.957-2.957-2.957-4.669
	c0-1.322,0.873-1.861,1.643-2.337c0.428-0.264,0.87-0.538,1.313-0.982c0.019-0.02,0.041-0.166-0.065-0.464
	C7.777,3.741,5.58,1.843,4.929,1.75C4.413,1.855,2.945,3.448,1.757,5.18z"/>
</svg>
